# xmcd
#
# Track frame offsets:
#	150
#	14718
#	27652
#	43895
#	56712
#	72220
#	89785
#	104746
#	123374
#	140318
#	162493
#
# Disc length: 2373 seconds
#
# Revision: 0
# Processed by: cddbd v1.5.2PL0 Copyright (c) Steve Scherf et al.
# Submitted via: EasyCDDAExtractor 16.0.6.1
#
DISCID=ab09430b
DTITLE=Dave Thomson - Unconditional
DYEAR=1900
DGENRE=
TTITLE0=Unconditional
TTITLE1=Play It Loud
TTITLE2=In The Storm
TTITLE3=Sweet Talkin
TTITLE4=I'Ve Got A Plan
TTITLE5=Scars Make Men
TTITLE6=My Harley and Me
TTITLE7=Get Country
TTITLE8=Where my Heart is Found
TTITLE9=Gone
TTITLE10=Amazing Grace
EXTD=
EXTT0=
EXTT1=
EXTT2=
EXTT3=
EXTT4=
EXTT5=
EXTT6=
EXTT7=
EXTT8=
EXTT9=
EXTT10=
PLAYORDER=
